<?xml version="1.0" encoding="utf-8"?>
<!-- Generator: Adobe Illustrator 18.0.0, SVG Export Plug-In . SVG Version: 6.00 Build 0)  -->
<!DOCTYPE svg PUBLIC "-//W3C//DTD SVG 1.1//EN" "http://www.w3.org/Graphics/SVG/1.1/DTD/svg11.dtd">
<svg version="1.1" id="Слой_1" xmlns="http://www.w3.org/2000/svg" xmlns:xlink="http://www.w3.org/1999/xlink" x="0px" y="0px"
	 viewBox="0 0 36.9 36" enable-background="new 0 0 36.9 36" xml:space="preserve">
<g id="Forma_1_4_">
	<g>
		<path fill-rule="evenodd" clip-rule="evenodd" fill="#FFFFFF" d="M36,28.1c-0.1-0.5-0.4-0.9-0.9-1.2l-7.2-4.2h0
			c-0.2-0.1-0.6-0.2-1-0.2c-0.6,0-1.1,0.2-1.6,0.6l-2.1,2.2c0,0-0.1,0.1-0.2,0.1c-0.1,0-0.2,0.1-0.2,0.1l-0.5-0.1
			c-0.3-0.1-0.8-0.2-1.3-0.5c-0.6-0.3-1.3-0.8-2.2-1.4c-0.9-0.6-1.9-1.5-3-2.7c-1.1-1.1-2-2.1-2.6-2.9c-0.6-0.9-1.1-1.6-1.4-2.2
			c-0.3-0.7-0.6-1.3-0.7-1.8c0-0.1,0-0.2,0.1-0.3c0-0.1,0.1-0.2,0.1-0.2l1.8-1.8c0.3-0.3,0.5-0.7,0.6-1.2c0.1-0.5,0-0.9-0.2-1.3
			l-4-7.5C9.5,1.2,9.2,1,9,0.8C8.7,0.6,8.5,0.5,8.1,0.5C7.7,0.5,7.3,0.7,7,1L2,5.9C1.8,6.2,1.6,6.5,1.4,6.8C1.2,7.2,1.1,7.5,1.1,7.9
			c0,0,0,0.3,0,0.7c0,0.4,0,1.1,0.1,1.8c0.1,0.8,0.4,1.7,0.7,2.8c0.3,1.1,0.9,2.3,1.6,3.6c0.7,1.3,1.6,2.8,2.7,4.3
			c1.1,1.6,2.6,3.2,4.3,4.9c2.2,2.2,4.2,3.9,6.2,5.2c1.9,1.3,3.6,2.2,5.2,2.8c1.5,0.6,2.8,1,3.9,1.2c1,0.2,1.8,0.2,2.3,0.2
			c0.2,0,0.4,0,0.5,0c0.1,0,0.2,0,0.2,0c0.3,0,0.7-0.2,1.1-0.3c0.4-0.2,0.6-0.4,0.9-0.6l4.9-4.9C35.9,29.2,36.1,28.7,36,28.1z"/>
	</g>
</g>
</svg>
