<?xml version="1.0" encoding="utf-8"?>
<!-- Generator: Adobe Illustrator 18.0.0, SVG Export Plug-In . SVG Version: 6.00 Build 0)  -->
<!DOCTYPE svg PUBLIC "-//W3C//DTD SVG 1.1//EN" "http://www.w3.org/Graphics/SVG/1.1/DTD/svg11.dtd">
<svg version="1.1" id="Layer_1" xmlns="http://www.w3.org/2000/svg" xmlns:xlink="http://www.w3.org/1999/xlink" x="0px" y="0px"
	 viewBox="15.8 12.8 35.5 36" enable-background="new 15.8 12.8 35.5 36" xml:space="preserve">
<g>
	<path fill="#FFFFFF" d="M48.6,30.6c0-8.4-6.8-15.3-15.2-15.3c-0.8,0-1.6,0.1-2.4,0.2C29.6,14.5,27.9,14,26,14c-5,0-9,4.1-9,9.2
		c0,1.8,0.5,3.6,1.5,5c-0.1,0.8-0.2,1.6-0.2,2.4c0,8.4,6.8,15.3,15.2,15.3c0.9,0,1.9-0.1,2.8-0.3c1.4,0.9,3,1.4,4.8,1.4
		c5,0,9-4.1,9-9.2c0-1.9-0.6-3.7-1.6-5.2C48.5,32,48.6,31.3,48.6,30.6z M34.8,42.4c-4.8,0.3-7.1-0.8-9.1-2.8
		c-2.3-2.2-1.4-4.7,0.5-4.9c1.9-0.1,3,2.2,4,2.8c1,0.6,4.8,2.1,6.8-0.3c2.2-2.6-1.5-3.9-4.1-4.3c-3.8-0.6-8.6-2.7-8.3-6.8
		c0.4-4.1,3.5-6.3,6.7-6.6c4.1-0.4,6.8,0.6,9,2.5c2.5,2.1,1.1,4.5-0.4,4.7c-1.6,0.2-3.3-3.5-6.8-3.6c-3.6-0.1-5.9,3.8-1.6,4.9
		c4.4,1.1,9.1,1.5,10.8,5.6C44,37.8,39.7,42.1,34.8,42.4z"/>
</g>
</svg>
