<?xml version="1.0" encoding="utf-8"?>
<!-- Generator: Adobe Illustrator 18.0.0, SVG Export Plug-In . SVG Version: 6.00 Build 0)  -->
<!DOCTYPE svg PUBLIC "-//W3C//DTD SVG 1.1//EN" "http://www.w3.org/Graphics/SVG/1.1/DTD/svg11.dtd">
<svg version="1.1" id="icon_vk" xmlns="http://www.w3.org/2000/svg" xmlns:xlink="http://www.w3.org/1999/xlink" x="0px" y="0px"
	 viewBox="0 0 39.2 23.4" enable-background="new 0 0 39.2 23.4" xml:space="preserve">
<g id="Forma_1_2_">
	<g>
		<path fill-rule="evenodd" clip-rule="evenodd" fill="#FFFFFF" d="M38.3,20.5c0-0.1-0.1-0.2-0.1-0.3c-0.7-1.2-1.9-2.7-3.8-4.4l0,0
			l0,0l0,0h0c-0.8-0.8-1.4-1.4-1.6-1.6c-0.4-0.5-0.5-1.1-0.3-1.6c0.2-0.4,0.8-1.3,1.8-2.6c0.5-0.7,1-1.3,1.3-1.7
			c2.3-3.1,3.3-5,3-5.9L38.4,2c-0.1-0.1-0.3-0.2-0.6-0.3c-0.3-0.1-0.8-0.1-1.3-0.1l-5.7,0c-0.1,0-0.3,0-0.4,0c-0.1,0-0.2,0-0.3,0.1
			c0,0-0.1,0-0.1,0.1l-0.1,0.1c-0.1,0-0.1,0.1-0.2,0.2c-0.1,0.1-0.1,0.2-0.2,0.4c-0.6,1.6-1.3,3.1-2.1,4.5c-0.5,0.8-0.9,1.5-1.3,2.2
			c-0.4,0.6-0.8,1.1-1,1.3c-0.3,0.3-0.5,0.5-0.8,0.7c-0.2,0.2-0.4,0.2-0.5,0.2c-0.1,0-0.2-0.1-0.3-0.1c-0.2-0.1-0.3-0.3-0.4-0.5
			c-0.1-0.2-0.2-0.5-0.2-0.8c0-0.3-0.1-0.6-0.1-0.8c0-0.2,0-0.5,0-1c0-0.4,0-0.7,0-0.8c0-0.5,0-1.1,0-1.7c0-0.6,0-1.1,0-1.4
			c0-0.3,0-0.7,0-1.1c0-0.4,0-0.7-0.1-0.9c0-0.2-0.1-0.4-0.2-0.6c-0.1-0.2-0.2-0.4-0.4-0.5C22,1,21.7,0.9,21.5,0.9
			c-0.7-0.2-1.6-0.2-2.7-0.3c-2.5,0-4,0.1-4.7,0.5c-0.3,0.1-0.5,0.3-0.8,0.6c-0.2,0.3-0.3,0.5-0.1,0.5C14,2.3,14.6,2.6,14.9,3
			L15,3.3c0.1,0.2,0.2,0.5,0.3,0.9c0.1,0.4,0.2,0.9,0.2,1.5c0.1,1,0.1,1.8,0,2.5c-0.1,0.7-0.1,1.2-0.2,1.6c-0.1,0.4-0.1,0.7-0.3,0.9
			c-0.1,0.2-0.2,0.4-0.2,0.4c0,0.1-0.1,0.1-0.1,0.1c-0.2,0.1-0.3,0.1-0.5,0.1c-0.2,0-0.4-0.1-0.7-0.3c-0.3-0.2-0.5-0.4-0.8-0.8
			c-0.3-0.3-0.6-0.8-1-1.4c-0.4-0.6-0.7-1.3-1.1-2.1l-0.3-0.6c-0.2-0.4-0.5-0.9-0.8-1.6C9.1,3.9,8.8,3.2,8.6,2.6
			C8.5,2.3,8.3,2.1,8.1,1.9L8,1.9C7.9,1.8,7.8,1.8,7.7,1.7C7.5,1.6,7.4,1.6,7.2,1.6l-5.4,0C1.2,1.6,0.9,1.7,0.7,2L0.6,2.1
			c0,0.1-0.1,0.2-0.1,0.3c0,0.1,0,0.3,0.1,0.5c0.8,1.9,1.7,3.7,2.6,5.5c0.9,1.8,1.7,3.2,2.4,4.2c0.7,1.1,1.4,2.1,2.1,3
			c0.7,1,1.2,1.6,1.4,1.8c0.2,0.3,0.4,0.5,0.5,0.6l0.5,0.5c0.3,0.3,0.8,0.7,1.4,1.2c0.6,0.4,1.3,0.9,2,1.3c0.7,0.4,1.6,0.8,2.6,1.1
			c1,0.3,2,0.4,2.9,0.3h2.3c0.5,0,0.8-0.2,1-0.4l0.1-0.1c0.1-0.1,0.1-0.2,0.1-0.4c0-0.2,0.1-0.4,0.1-0.6c0-0.6,0-1.1,0.1-1.6
			c0.1-0.5,0.2-0.8,0.3-1c0.1-0.2,0.3-0.4,0.4-0.6c0.2-0.2,0.3-0.3,0.3-0.3c0.1,0,0.1-0.1,0.2-0.1c0.3-0.1,0.7,0,1.1,0.3
			c0.4,0.3,0.8,0.7,1.2,1.2c0.4,0.5,0.8,1,1.4,1.6c0.5,0.6,1,1,1.4,1.3l0.4,0.2c0.3,0.2,0.6,0.3,1,0.4c0.4,0.1,0.8,0.2,1.1,0.1
			l5.1-0.1c0.5,0,0.9-0.1,1.2-0.3c0.3-0.2,0.4-0.4,0.5-0.6c0.1-0.2,0.1-0.4,0-0.7C38.4,20.7,38.4,20.6,38.3,20.5z"/>
	</g>
</g>
</svg>
