<?xml version="1.0" encoding="utf-8"?>
<!-- Generator: Adobe Illustrator 18.0.0, SVG Export Plug-In . SVG Version: 6.00 Build 0)  -->
<!DOCTYPE svg PUBLIC "-//W3C//DTD SVG 1.1//EN" "http://www.w3.org/Graphics/SVG/1.1/DTD/svg11.dtd">
<svg version="1.1" id="Слой_1" xmlns="http://www.w3.org/2000/svg" xmlns:xlink="http://www.w3.org/1999/xlink" x="0px" y="0px"
	 viewBox="0 0 35.5 36.1" enable-background="new 0 0 35.5 36.1" xml:space="preserve">
<g id="Forma_1_1_">
	<g>
		<path fill="#FFFFFF" d="M18.5,20.2l-1.6-1.3c-0.5-0.4-1.2-1-1.2-2c0-1,0.7-1.6,1.3-2.2c1.9-1.5,3.8-3.1,3.8-6.5
			c0-3.5-2.2-5.3-3.2-6.1h2.8l2.9-1.6h-9.4c-2.5,0-5.5,0.4-8.1,2.5c-2,1.7-2.9,4-2.9,6.1c0,3.5,2.7,7.1,7.5,7.1c0.5,0,1,0,1.5-0.1
			c-0.2,0.5-0.5,1-0.5,1.8c0,1.4,0.7,2.3,1.4,3.1c-2,0.1-5.9,0.4-8.7,2.1c-2.7,1.6-3.5,3.9-3.5,5.5c0,3.4,3.2,6.5,9.8,6.5
			c7.8,0,12-4.3,12-8.6C22.3,23.4,20.5,21.9,18.5,20.2z M12.5,15c-3.9,0-5.7-5-5.7-8.1c0-1.2,0.2-2.4,1-3.4C8.5,2.6,9.8,2,11,2
			c3.8,0,5.7,5.1,5.7,8.4c0,0.8-0.1,2.3-1.1,3.3C14.9,14.4,13.6,15,12.5,15z M12.5,33.3c-4.9,0-8-2.3-8-5.5c0-3.2,2.9-4.3,3.9-4.7
			c1.9-0.6,4.4-0.7,4.8-0.7c0.5,0,0.7,0,1,0c3.5,2.5,5,3.7,5,6C19.2,31.2,16.9,33.3,12.5,33.3z M30.1,15.3v-4.9h-2.5v4.9h-4.9v2.5
			h4.9v4.9h2.5v-4.9H35v-2.5H30.1z"/>
	</g>
</g>
</svg>
